<?xml version="1.0" standalone="no"?>
<!DOCTYPE svg PUBLIC "-//W3C//DTD SVG 20010904//EN"
 "http://www.w3.org/TR/2001/REC-SVG-20010904/DTD/svg10.dtd">
<svg version="1.0" xmlns="http://www.w3.org/2000/svg"
 width="653.000000pt" height="615.000000pt" viewBox="0 0 653.000000 615.000000"
 preserveAspectRatio="xMidYMid meet">

<g transform="translate(0.000000,615.000000) scale(0.100000,-0.100000)"
fill="#000000" stroke="none">
<path d="M635 5884 c-93 -19 -131 -28 -139 -36 -6 -4 -16 -8 -23 -8 -39 0
-233 -156 -233 -186 0 -8 -3 -14 -8 -14 -4 0 -16 -17 -26 -37 -10 -21 -22 -45
-26 -53 -4 -9 -11 -30 -14 -48 -4 -17 -12 -34 -17 -37 -5 -4 -9 -788 -9 -1989
0 -1740 2 -1987 15 -2012 8 -16 15 -37 15 -46 0 -9 5 -20 10 -23 6 -3 10 -13
10 -21 0 -47 150 -210 225 -244 24 -11 47 -24 50 -30 3 -5 17 -10 30 -10 13 0
26 -4 29 -9 3 -5 23 -12 43 -16 21 -4 475 -10 1008 -14 888 -7 974 -9 1015
-25 25 -10 49 -22 54 -27 6 -5 17 -9 25 -10 28 -1 145 -94 192 -152 49 -61 99
-151 99 -179 0 -9 4 -19 9 -22 5 -4 12 -45 15 -94 8 -98 26 -202 37 -202 4 0
10 -9 14 -19 9 -29 60 -75 111 -102 36 -18 61 -23 125 -23 48 0 84 5 91 12 7
7 18 12 25 12 29 0 120 94 128 132 4 15 11 30 16 33 5 4 9 43 9 88 1 45 7 100
15 122 8 22 15 50 15 63 0 12 5 22 10 22 6 0 10 7 10 16 0 14 27 71 40 84 3 3
18 23 35 45 48 67 116 122 200 166 31 16 64 29 74 29 9 0 23 6 29 12 10 10
226 14 980 19 931 6 1000 8 1087 37 135 44 279 193 336 347 27 73 29 200 29
2026 1 1869 -2 2011 -31 2043 -5 6 -9 19 -9 29 0 11 -18 46 -40 79 -22 33 -40
62 -40 65 0 10 -115 113 -126 113 -7 0 -14 3 -16 8 -5 11 -108 62 -126 62 -10
0 -35 7 -57 15 -34 12 -167 14 -825 14 -485 1 -810 -3 -850 -10 -36 -5 -91
-12 -123 -16 -32 -3 -60 -10 -63 -14 -3 -5 -15 -9 -27 -9 -22 0 -108 -25 -139
-41 -10 -5 -23 -9 -28 -9 -36 0 -326 -166 -338 -192 -2 -5 -8 -8 -13 -8 -19 0
-239 -212 -239 -230 0 -4 -12 -15 -26 -24 -24 -17 -26 -16 -47 11 -25 33 -179
187 -221 222 -104 85 -303 197 -411 231 -22 7 -49 17 -60 23 -25 13 -73 23
-285 56 -61 10 -1577 14 -1625 5z m1625 -551 c122 -19 228 -61 345 -138 99
-66 255 -227 255 -265 0 -5 4 -10 9 -10 5 0 11 -8 15 -17 3 -10 10 -25 15 -33
24 -39 61 -139 61 -164 0 -12 5 -27 11 -33 21 -21 27 -391 28 -1775 0 -1588 6
-1469 -67 -1432 -20 10 -38 22 -40 27 -2 4 -12 7 -23 7 -11 0 -27 4 -37 10
-55 30 -150 58 -252 73 -36 5 -472 12 -980 16 l-915 6 -3 1859 c-1 1380 1
1862 9 1873 10 11 134 13 758 9 417 -2 775 -8 811 -13z m3585 -5 c3 -13 4
-855 3 -1873 l-3 -1850 -920 -6 c-734 -5 -935 -9 -992 -20 -39 -8 -75 -17 -79
-21 -4 -5 -22 -8 -40 -8 -18 0 -35 -4 -39 -9 -3 -5 -20 -13 -37 -17 -18 -3
-39 -10 -48 -14 -8 -4 -39 -20 -68 -35 -29 -15 -60 -24 -68 -21 -12 5 -14 207
-11 1588 3 1618 3 1621 38 1690 5 10 9 24 9 32 0 23 77 164 123 226 55 75 174
190 196 190 5 0 11 3 13 8 5 12 87 62 102 62 7 0 19 7 26 15 7 8 22 15 35 15
12 0 25 3 29 7 14 14 122 43 166 44 25 0 56 5 70 9 14 4 355 8 757 9 l733 1 5
-22z"/>
</g>
</svg>
