<?xml version="1.0" standalone="no"?>
<!DOCTYPE svg PUBLIC "-//W3C//DTD SVG 20010904//EN"
 "http://www.w3.org/TR/2001/REC-SVG-20010904/DTD/svg10.dtd">
<svg version="1.0" xmlns="http://www.w3.org/2000/svg"
 width="702.000000pt" height="653.000000pt" viewBox="0 0 702.000000 653.000000"
 preserveAspectRatio="xMidYMid meet">

<g transform="translate(0.000000,653.000000) scale(0.100000,-0.100000)"
fill="#000000" stroke="none">
<path d="M2693 6419 c-656 -50 -1246 -476 -1504 -1085 -114 -267 -160 -549
-139 -833 27 -355 151 -683 359 -956 67 -88 237 -264 300 -310 22 -17 40 -32
40 -35 0 -3 -54 -31 -119 -63 -872 -425 -1467 -1360 -1483 -2332 -2 -128 0
-144 21 -190 88 -191 330 -238 479 -93 68 67 84 118 94 298 9 174 35 342 74
474 205 706 720 1233 1414 1447 224 69 413 93 675 86 209 -5 331 -24 521 -78
125 -35 190 -35 268 -1 118 52 193 195 166 319 -5 27 -11 53 -12 59 -1 6 34
39 78 73 247 189 452 454 570 735 284 678 130 1453 -391 1968 -260 256 -555
415 -908 488 -87 18 -328 42 -381 39 -11 -1 -66 -5 -122 -10z m352 -605 c576
-99 995 -597 995 -1184 0 -667 -533 -1200 -1200 -1200 -408 0 -780 200 -1004
540 -202 305 -252 699 -134 1045 140 413 497 722 923 798 109 20 309 21 420 1z"/>
<path d="M4664 3011 c-61 -28 -120 -86 -149 -146 -30 -65 -34 -171 -9 -235
l16 -40 -48 -43 c-62 -53 -98 -89 -151 -151 l-43 -48 -42 17 c-67 27 -167 23
-233 -10 -113 -55 -171 -159 -163 -290 7 -111 66 -195 172 -247 l41 -20 -6
-84 c-4 -46 -4 -122 0 -169 l6 -84 -40 -18 c-53 -24 -122 -88 -147 -138 -30
-57 -36 -167 -13 -236 24 -72 101 -149 173 -173 65 -22 156 -22 211 0 l41 16
43 -48 c53 -62 89 -98 151 -152 47 -40 49 -43 37 -70 -35 -76 -29 -193 14
-268 55 -93 146 -146 255 -145 119 0 220 64 269 169 l22 47 85 -6 c46 -4 122
-4 169 0 l84 6 18 -40 c26 -58 91 -125 148 -151 65 -31 180 -33 241 -5 61 28
120 86 149 146 30 65 34 171 9 235 l-16 40 48 43 c62 53 98 89 151 151 l43 48
42 -17 c59 -24 163 -23 220 3 58 25 113 74 146 131 24 41 27 56 27 141 0 85
-3 100 -27 141 -32 55 -84 103 -142 131 l-41 20 6 84 c4 46 4 122 0 169 l-6
84 40 18 c53 24 122 88 147 138 29 56 36 167 14 233 -22 66 -84 134 -151 167
-66 33 -166 37 -233 10 l-42 -17 -43 48 c-53 62 -89 98 -151 151 l-48 43 16
40 c25 64 21 170 -9 235 -29 60 -88 118 -149 146 -57 26 -176 26 -233 0 -59
-27 -125 -92 -152 -148 l-22 -48 -85 6 c-46 4 -122 4 -168 0 l-85 -6 -22 48
c-27 56 -93 121 -152 148 -57 26 -176 26 -233 0z m791 -819 c161 -64 282 -185
347 -347 31 -76 33 -86 33 -215 0 -129 -2 -139 -33 -215 -65 -162 -185 -282
-347 -347 -76 -31 -86 -33 -215 -33 -129 0 -139 2 -215 33 -162 65 -282 185
-347 347 -31 76 -33 86 -33 215 0 129 2 139 33 215 75 186 221 316 416 371 35
9 87 13 166 11 101 -3 125 -8 195 -35z"/>
</g>
</svg>
