<?xml version="1.0" standalone="no"?>
<!DOCTYPE svg PUBLIC "-//W3C//DTD SVG 20010904//EN"
 "http://www.w3.org/TR/2001/REC-SVG-20010904/DTD/svg10.dtd">
<svg version="1.0" xmlns="http://www.w3.org/2000/svg"
 width="644.000000pt" height="680.000000pt" viewBox="0 0 644.000000 680.000000"
 preserveAspectRatio="xMidYMid meet">

<g transform="translate(0.000000,680.000000) scale(0.100000,-0.100000)"
fill="#000000" stroke="none">
<path d="M1035 6540 c-27 -5 -70 -11 -95 -15 -25 -4 -54 -10 -65 -15 -11 -5
-38 -16 -60 -25 -159 -66 -265 -142 -375 -271 -19 -23 -44 -56 -54 -75 -11
-19 -22 -36 -25 -39 -3 -3 -14 -23 -25 -45 -10 -22 -25 -52 -32 -67 -8 -14
-14 -35 -14 -45 0 -11 -3 -23 -7 -27 -4 -4 -14 -33 -22 -64 -11 -44 -15 -153
-18 -464 l-3 -407 26 -54 c26 -57 86 -119 143 -149 44 -24 202 -26 221 -3 7 8
20 15 30 15 25 0 104 80 128 132 21 43 22 56 22 398 0 371 1 381 48 479 26 52
104 131 130 131 6 0 12 5 12 10 0 6 11 10 24 10 12 0 36 4 52 9 16 6 193 11
394 14 l365 3 43 28 c58 37 109 92 133 145 23 54 26 163 4 205 -8 15 -15 33
-15 40 -1 19 -113 123 -140 129 -14 3 -43 10 -65 16 -46 12 -682 13 -760 1z"/>
<path d="M4728 6543 c-16 -2 -28 -9 -28 -14 0 -5 -9 -9 -21 -9 -31 0 -97 -57
-135 -116 -33 -51 -34 -57 -34 -154 0 -55 4 -100 9 -100 5 0 12 -10 15 -22 8
-32 63 -90 116 -124 l45 -29 360 -2 c451 -2 469 -5 565 -103 46 -46 73 -91 86
-145 4 -16 10 -199 13 -405 8 -418 5 -404 82 -480 61 -60 112 -80 206 -80 79
0 122 13 159 46 6 6 25 21 40 35 26 22 37 40 73 119 8 18 10 141 8 425 -4 393
-11 503 -35 527 -7 7 -12 21 -12 32 0 17 -41 107 -73 161 -63 106 -166 215
-263 280 -32 22 -60 43 -62 48 -2 4 -9 7 -16 7 -7 0 -34 11 -60 25 -26 14 -55
25 -64 25 -10 0 -26 6 -37 14 -11 7 -38 16 -60 19 -22 3 -62 10 -90 16 -48 9
-728 13 -787 4z"/>
<path d="M405 2262 c-53 -30 -111 -91 -138 -145 l-27 -52 0 -407 c0 -340 2
-410 15 -434 8 -16 15 -43 15 -61 0 -17 5 -35 10 -38 6 -3 10 -15 10 -27 0
-11 6 -32 14 -46 7 -15 22 -45 32 -67 11 -22 22 -42 25 -45 3 -3 8 -12 12 -20
33 -73 191 -235 278 -284 19 -11 36 -22 39 -26 3 -4 41 -21 85 -39 44 -17 88
-36 97 -41 10 -6 29 -10 42 -10 13 0 51 -7 84 -15 83 -22 786 -17 847 5 40 15
155 116 155 136 0 7 7 25 15 40 23 44 19 151 -6 209 -22 49 -101 135 -124 135
-8 0 -21 8 -31 17 -15 16 -52 18 -380 20 -363 2 -410 6 -484 40 -40 18 -130
108 -130 129 0 8 -4 14 -9 14 -26 0 -35 104 -38 460 -3 349 -4 367 -25 409
-27 57 -82 112 -139 139 -58 28 -197 30 -244 4z"/>
<path d="M5883 2260 c-56 -30 -93 -64 -126 -115 l-32 -50 -6 -370 c-4 -203
-10 -388 -14 -410 -4 -22 -22 -63 -40 -91 -32 -49 -102 -114 -124 -114 -6 0
-11 -4 -11 -8 0 -22 -136 -32 -475 -35 l-360 -3 -45 -29 c-61 -38 -86 -64
-116 -120 -21 -41 -25 -61 -25 -134 0 -60 5 -96 17 -120 24 -48 115 -141 139
-141 11 -1 31 -7 45 -15 38 -21 755 -22 826 0 27 8 61 15 75 15 15 0 40 7 55
15 16 8 37 15 46 15 9 0 20 5 23 10 3 6 14 10 24 10 10 0 24 7 31 15 7 8 19
15 27 15 8 0 29 11 47 25 18 14 35 25 38 25 20 0 164 140 216 210 43 59 102
166 102 187 0 7 4 13 9 13 5 0 11 12 14 28 2 15 9 41 15 57 26 76 32 169 32
533 0 210 -4 390 -9 400 -4 9 -17 35 -27 57 -23 49 -68 93 -133 128 -45 23
-192 22 -238 -3z"/>
</g>
</svg>
