<?xml version="1.0" standalone="no"?>
<!DOCTYPE svg PUBLIC "-//W3C//DTD SVG 20010904//EN"
 "http://www.w3.org/TR/2001/REC-SVG-20010904/DTD/svg10.dtd">
<svg version="1.0" xmlns="http://www.w3.org/2000/svg"
 width="563.000000pt" height="632.000000pt" viewBox="0 0 563.000000 632.000000"
 preserveAspectRatio="xMidYMid meet">

<g transform="translate(0.000000,632.000000) scale(0.100000,-0.100000)"
fill="#000000" stroke="none">
<path d="M2590 5553 c-55 -27 -95 -63 -106 -95 -3 -10 -9 -18 -14 -18 -17 0
-23 -76 -27 -347 l-4 -283 -932 -3 c-531 -2 -953 -8 -982 -13 -88 -17 -198
-77 -254 -138 -20 -22 -42 -45 -49 -52 -6 -7 -12 -17 -12 -22 0 -6 -4 -12 -8
-14 -12 -5 -62 -116 -62 -138 0 -10 -4 -22 -10 -25 -14 -9 -14 -1501 0 -1510
5 -3 10 -15 10 -27 0 -32 66 -148 113 -199 45 -50 139 -119 160 -119 7 0 17
-4 23 -8 33 -30 105 -32 1032 -32 517 0 947 -3 956 -6 14 -6 16 -97 16 -928 0
-705 3 -929 13 -956 30 -87 83 -143 158 -168 43 -15 145 -16 154 -2 3 5 15 10
26 10 10 0 19 4 19 9 0 5 9 11 19 14 30 7 84 92 98 150 9 39 12 285 13 953 0
739 2 904 13 913 10 7 190 12 593 14 555 4 657 8 670 28 3 5 13 9 24 9 10 0
46 16 80 35 34 19 64 35 66 35 6 0 215 142 236 161 10 9 31 22 46 30 15 8 29
17 32 20 3 3 23 17 45 31 34 21 420 283 451 305 5 5 17 13 26 18 8 6 35 23 59
39 47 30 159 141 159 157 0 5 11 27 25 49 14 22 25 48 25 59 0 11 5 23 10 26
12 8 13 258 1 283 -5 9 -17 35 -27 57 -43 92 -131 195 -194 227 -14 7 -34 21
-44 31 -11 9 -23 17 -26 17 -4 0 -20 11 -36 25 -16 14 -32 25 -35 25 -6 0
-296 195 -324 218 -21 17 -104 72 -108 72 -3 0 -79 51 -169 113 -160 111 -234
153 -313 177 -22 7 -49 16 -60 20 -55 21 -279 30 -733 30 l-492 0 0 267 c0
174 -4 279 -12 302 -32 102 -61 137 -144 176 -68 32 -123 32 -194 -2z m1521
-1276 c30 -18 65 -40 79 -48 13 -8 31 -20 39 -28 8 -7 53 -38 100 -68 47 -31
88 -59 89 -64 2 -5 8 -9 13 -9 5 0 73 -44 152 -99 78 -54 156 -105 172 -114
17 -8 40 -25 52 -36 12 -12 27 -21 33 -21 5 0 10 -4 10 -10 0 -5 6 -10 13 -10
7 0 24 -11 39 -25 15 -14 30 -25 33 -25 15 0 85 -54 85 -66 0 -8 -33 -35 -72
-61 -40 -27 -74 -51 -76 -55 -2 -5 -8 -8 -13 -8 -6 0 -22 -11 -37 -25 -15 -14
-32 -25 -39 -25 -7 0 -13 -4 -13 -10 0 -5 -6 -10 -13 -10 -7 0 -22 -8 -33 -17
-11 -10 -28 -22 -37 -28 -9 -5 -89 -59 -177 -120 -88 -60 -168 -114 -177 -120
-9 -5 -22 -14 -27 -18 -74 -55 -224 -147 -242 -147 -13 0 -26 -4 -29 -10 -8
-13 -3394 -13 -3415 0 -13 8 -15 92 -18 640 -2 431 1 637 8 650 11 20 24 20
1728 20 l1718 0 55 -33z"/>
</g>
</svg>
