<?xml version="1.0" standalone="no"?>
<!DOCTYPE svg PUBLIC "-//W3C//DTD SVG 20010904//EN"
 "http://www.w3.org/TR/2001/REC-SVG-20010904/DTD/svg10.dtd">
<svg version="1.0" xmlns="http://www.w3.org/2000/svg"
 width="570.000000pt" height="563.000000pt" viewBox="0 0 570.000000 563.000000"
 preserveAspectRatio="xMidYMid meet">

<g transform="translate(0.000000,563.000000) scale(0.100000,-0.100000)"
fill="#000000" stroke="none">
<path d="M990 5453 c-72 -47 -126 -124 -132 -188 -3 -27 -7 -30 -43 -32 -53
-4 -233 -50 -249 -65 -6 -4 -18 -8 -28 -8 -10 0 -18 -4 -18 -10 0 -5 -9 -10
-20 -10 -11 0 -20 -4 -20 -10 0 -5 -5 -10 -11 -10 -51 0 -289 -259 -289 -314
0 -9 -4 -16 -10 -16 -5 0 -10 -9 -10 -20 0 -11 -4 -28 -9 -38 -45 -89 -53
-235 -47 -842 2 -294 9 -569 15 -610 5 -41 13 -101 17 -133 3 -31 10 -60 15
-63 5 -3 9 -18 9 -35 0 -16 4 -37 9 -47 5 -9 14 -35 21 -57 16 -55 66 -178
101 -250 31 -64 38 -75 81 -142 16 -23 28 -46 28 -51 0 -6 4 -12 9 -14 5 -1
27 -30 50 -63 44 -62 184 -211 263 -280 84 -72 266 -195 289 -195 5 0 9 -4 9
-10 0 -5 6 -10 14 -10 8 0 47 -16 87 -36 103 -51 151 -68 289 -104 25 -7 65
-19 89 -26 25 -8 61 -14 82 -14 35 0 37 -2 53 -49 9 -28 16 -66 16 -85 0 -19
5 -38 10 -41 6 -3 10 -18 10 -33 0 -15 14 -65 31 -112 17 -47 33 -95 36 -108
3 -12 9 -25 14 -28 5 -3 9 -14 9 -25 0 -10 5 -19 10 -19 6 0 10 -6 10 -14 0
-21 146 -275 170 -296 3 -3 17 -21 30 -40 84 -122 324 -339 466 -421 66 -38
238 -125 259 -131 11 -3 52 -18 90 -32 177 -67 321 -89 570 -89 186 0 295 8
330 23 11 5 34 11 50 13 58 10 161 40 260 77 41 16 192 91 240 120 28 17 57
33 65 37 8 4 17 9 20 13 3 3 39 30 80 59 124 89 254 219 358 359 68 93 81 113
138 222 16 30 32 57 37 58 4 2 7 11 7 21 0 9 4 21 9 27 5 5 16 29 25 54 32 94
43 120 49 126 4 4 7 20 7 35 0 15 4 31 10 34 5 3 10 21 10 39 0 17 4 36 9 42
9 9 13 37 30 209 5 50 10 230 10 400 2 314 5 345 39 345 6 0 33 12 59 27 26
14 57 31 68 37 11 6 22 13 25 16 3 3 28 24 55 45 28 22 53 45 57 51 4 6 25 32
47 59 50 61 95 149 126 250 21 66 25 101 25 202 0 110 -3 132 -30 214 -35 106
-76 183 -134 254 -23 28 -44 52 -47 55 -4 3 -28 23 -54 45 -26 22 -71 53 -99
68 -28 16 -55 33 -61 38 -5 5 -17 9 -27 9 -10 0 -26 4 -36 9 -64 34 -220 53
-331 40 -250 -28 -459 -173 -573 -396 -58 -112 -95 -277 -84 -368 3 -28 9 -76
12 -108 4 -31 10 -60 15 -63 5 -3 9 -14 9 -25 0 -35 88 -188 148 -258 67 -79
136 -131 235 -180 l72 -36 -1 -365 c-2 -360 -7 -466 -25 -484 -5 -6 -9 -19 -9
-30 0 -76 -141 -363 -217 -444 -7 -7 -13 -18 -13 -23 0 -13 -188 -197 -222
-217 -15 -9 -28 -20 -28 -24 0 -4 -7 -8 -15 -8 -8 0 -15 -4 -15 -8 0 -5 -20
-19 -45 -32 -25 -13 -50 -29 -56 -37 -6 -7 -17 -13 -23 -13 -6 0 -38 -13 -71
-29 -33 -15 -85 -36 -115 -46 -30 -10 -64 -21 -75 -26 -38 -15 -243 -41 -330
-41 -51 -1 -226 18 -285 30 -53 11 -159 47 -214 73 -22 11 -46 19 -53 19 -7 0
-13 5 -13 10 0 6 -7 10 -15 10 -9 0 -59 28 -113 63 -100 65 -281 234 -317 295
-11 17 -23 32 -27 32 -4 0 -8 7 -8 15 0 8 -3 15 -7 15 -28 0 -173 318 -173
378 0 11 -4 24 -10 27 -5 3 -10 23 -10 43 l0 37 93 24 c50 13 107 25 125 28
18 3 35 9 38 14 3 5 16 9 29 9 13 0 27 4 30 10 3 5 15 10 26 10 10 0 27 4 37
9 9 6 62 31 117 58 55 26 102 51 103 55 2 5 8 8 13 8 12 0 123 71 127 82 2 4
10 8 18 8 8 0 14 4 14 8 0 4 14 16 32 26 30 18 265 247 298 291 51 68 130 185
130 193 0 6 3 12 8 14 10 4 102 190 102 206 0 6 5 12 10 12 6 0 10 11 10 24 0
14 5 28 10 31 6 3 10 17 10 30 0 13 4 26 9 29 5 3 11 18 14 33 3 16 13 53 23
83 48 157 58 321 59 915 0 502 -7 699 -27 711 -4 3 -8 15 -8 28 0 12 -11 46
-25 74 -14 29 -25 56 -25 62 0 5 -4 10 -10 10 -5 0 -10 5 -10 11 0 33 -112
162 -200 230 -46 36 -147 87 -210 107 -54 17 -178 42 -210 42 -29 0 -40 15
-40 56 0 39 -44 107 -96 146 -48 37 -52 38 -132 38 -72 0 -88 -3 -124 -27 -50
-31 -68 -48 -68 -62 0 -6 -4 -11 -9 -11 -4 0 -16 -24 -25 -54 -15 -47 -17 -94
-14 -353 3 -289 4 -299 26 -336 31 -53 59 -79 115 -106 80 -39 197 -19 259 44
30 29 68 101 68 127 0 30 19 58 40 58 45 0 129 -42 168 -84 77 -84 73 -37 69
-741 -4 -678 -6 -708 -61 -855 -10 -25 -20 -54 -23 -64 -15 -47 -78 -165 -132
-244 -65 -98 -200 -240 -276 -292 -28 -18 -51 -37 -53 -42 -2 -4 -8 -8 -14 -8
-5 0 -28 -13 -51 -29 -49 -33 -145 -81 -164 -81 -7 0 -13 -4 -13 -10 0 -5 -8
-10 -19 -10 -10 0 -34 -7 -54 -15 -171 -71 -489 -85 -707 -30 -36 9 -75 19
-88 22 -12 3 -25 9 -28 14 -3 5 -13 9 -24 9 -10 0 -35 8 -57 19 -129 63 -153
76 -153 83 0 4 -5 8 -11 8 -24 0 -138 89 -228 179 -130 130 -218 262 -293 441
-22 52 -38 104 -38 123 0 10 -4 25 -9 35 -31 57 -36 173 -36 768 l0 600 23 45
c47 92 118 146 198 151 48 3 49 2 52 -27 4 -42 35 -106 69 -141 38 -41 115
-76 164 -76 91 1 184 57 220 131 20 43 21 59 21 362 0 340 2 326 -56 402 -43
57 -90 77 -183 76 -55 0 -86 -5 -103 -16z m3978 -1982 c70 -28 112 -68 143
-137 37 -82 38 -137 2 -212 -31 -67 -53 -90 -117 -126 -40 -22 -59 -26 -131
-26 -50 0 -85 4 -85 10 0 6 -8 10 -18 10 -25 0 -97 67 -122 115 -31 56 -31
184 0 240 34 63 95 113 170 138 33 11 117 5 158 -12z"/>
</g>
</svg>
